/* XPM */
static char * newdocument_xpm[] = {
"11 14 6 1",
" 	c None",
".	c #000000",
"+	c #0A0A0A",
"@	c #FFFFFF",
"#	c #C0C0C0",
"$	c #616161",
".++++++    ",
".@@@@+@+   ",
".@###+@#+  ",
".@###+@##+ ",
".@###+++++$",
".@#######+$",
".@#######+$",
".@#######+$",
".@#######+$",
".@#######+$",
".@#######+$",
".@#######+$",
".........+$",
" $$$$$$$$$$"};
